<svg width="32" height="32" viewBox="0 0 32 32" fill="none" xmlns="http://www.w3.org/2000/svg">
<path d="M27.2773 5.67542H22.5695V4.72272C22.5695 4.32355 22.2459 4 21.8469 4C21.4478 4 21.1242 4.32355 21.1242 4.72272V5.67542H10.8758V4.72272C10.8758 4.32355 10.5522 4 10.1531 4C9.75409 4 9.43054 4.32355 9.43054 4.72272V5.67542H4.72272C4.32355 5.67542 4 5.99896 4 6.39813V26.9818C4 27.3807 4.32355 27.7043 4.72272 27.7043H27.2773C27.6765 27.7043 28 27.3807 28 26.9818C28 26.3271 28 6.72333 28 6.39813C28 5.99896 27.6765 5.67542 27.2773 5.67542ZM26.5546 26.259H5.44543V12.3974H26.5546V26.259ZM26.5546 10.952H5.44543V7.12085H9.43054V8.07355C9.43054 8.47272 9.75409 8.79626 10.1531 8.79626C10.5522 8.79626 10.8758 8.47272 10.8758 8.07355V7.12085H21.124V8.07355C21.124 8.47272 21.4476 8.79626 21.8467 8.79626C22.2459 8.79626 22.5695 8.47272 22.5695 8.07355V7.12085H26.5546V10.952Z" fill="#101A33"/>
<path d="M11.6317 23.7494C11.9138 24.0316 12.3714 24.0318 12.6536 23.7494L16.0006 20.4024L19.3476 23.7494C19.6297 24.0316 20.0873 24.0318 20.3695 23.7494C20.6518 23.4672 20.6518 23.0097 20.3695 22.7273L17.0227 19.3805L20.3695 16.0335C20.6518 15.7514 20.6518 15.2938 20.3695 15.0114C20.0873 14.7293 19.6297 14.7293 19.3476 15.0114L16.0006 18.3584L12.6536 15.0114C12.3714 14.7293 11.9138 14.7293 11.6317 15.0114C11.3493 15.2938 11.3493 15.7514 11.6317 16.0335L14.9785 19.3805L11.6317 22.7273C11.3493 23.0097 11.3493 23.4672 11.6317 23.7494Z" fill="#101A33"/>
</svg>
