<svg width="32" height="32" viewBox="0 0 32 32" fill="none" xmlns="http://www.w3.org/2000/svg">
<path d="M24.2297 11.147L19.8272 10.5093L17.8582 6.53253C17.0978 4.99642 14.8988 4.99689 14.1386 6.53248L12.1697 10.5092L7.76711 11.147C6.06643 11.3933 5.38758 13.4781 6.61768 14.6734L9.80341 17.7689L9.05138 22.1397C8.76091 23.8281 10.54 25.1159 12.0607 24.3192L15.9985 22.2554L19.9363 24.3192C21.4548 25.115 23.236 23.8278 22.9456 22.1397L22.1936 17.7689L25.3793 14.6734C26.6096 13.4776 25.9296 11.3932 24.2297 11.147ZM24.1382 13.4044L20.6179 16.825C20.4084 17.0286 20.3128 17.3219 20.3623 17.6093L21.1933 22.4393C21.235 22.6819 20.9818 22.8651 20.7634 22.7507L16.412 20.4703C16.1531 20.3346 15.8437 20.3346 15.5848 20.4703L11.2334 22.7507C11.0148 22.8652 10.7617 22.6818 10.8035 22.4393L11.6345 17.6093C11.6839 17.3219 11.5884 17.0286 11.3789 16.825L7.85852 13.4044C7.68169 13.2326 7.77841 12.9361 8.02273 12.9006L12.8877 12.1959C13.1772 12.154 13.4275 11.9728 13.557 11.7113L15.7327 7.31676C15.8419 7.09621 16.1548 7.09605 16.2641 7.31681L18.4398 11.7113C18.5693 11.9728 18.8196 12.154 19.1091 12.1959L23.9741 12.9006C24.2183 12.9361 24.315 13.2327 24.1382 13.4044Z" fill="#101A33"/>
<path d="M9.68387 5.82382L8.6208 4.36527C8.33215 3.96945 7.77632 3.8816 7.37923 4.16933C6.9821 4.45696 6.89402 5.01109 7.18262 5.40697L8.24569 6.86546C8.53444 7.26149 9.09027 7.34897 9.48725 7.0614C9.88439 6.77382 9.97246 6.2197 9.68387 5.82382Z" fill="#101A33"/>
<path d="M6.15612 18.8949C6.00451 18.4295 5.50305 18.1746 5.03607 18.326L3.28107 18.8945C2.8142 19.0457 2.55873 19.5455 2.7104 20.011C2.86232 20.4772 3.36462 20.7309 3.83045 20.5798L5.58545 20.0114C6.05237 19.8602 6.30784 19.3603 6.15612 18.8949Z" fill="#101A33"/>
<path d="M24.6229 4.1693C24.2258 3.88168 23.6699 3.96937 23.3814 4.36524L22.3183 5.82374C22.0297 6.21961 22.1178 6.77379 22.5149 7.06137C22.9122 7.3491 23.468 7.26115 23.7565 6.86543L24.8195 5.40694C25.1081 5.01106 25.0201 4.45688 24.6229 4.1693Z" fill="#101A33"/>
<path d="M28.7209 18.8938L26.9659 18.3253C26.499 18.1738 25.9976 18.4288 25.8458 18.8942C25.6941 19.3596 25.9496 19.8595 26.4165 20.0107L28.1715 20.5792C28.6374 20.7302 29.1396 20.4764 29.2916 20.0103C29.4433 19.5449 29.1878 19.045 28.7209 18.8938Z" fill="#101A33"/>
<path d="M15.9982 25.7633C15.5073 25.7633 15.1094 26.16 15.1094 26.6493V28.4477C15.1094 28.937 15.5073 29.3337 15.9982 29.3337C16.4891 29.3337 16.8871 28.937 16.8871 28.4477V26.6493C16.8871 26.16 16.4892 25.7633 15.9982 25.7633Z" fill="#101A33"/>
</svg>
