<svg width="24" height="24" viewBox="0 0 24 24" fill="none" xmlns="http://www.w3.org/2000/svg">
<path d="M16.9759 8.84359L15.975 2.505C15.9291 2.21418 15.6785 2 15.3841 2H7.6596C7.36523 2 7.11453 2.21418 7.06867 2.505L6.06785 8.84363C5.81566 10.441 6.27355 12.0623 7.3241 13.2918C8.24406 14.3684 9.53171 15.0429 10.9236 15.1939V20.8034H8.28718C7.95675 20.8034 7.6889 21.0713 7.6889 21.4017C7.6889 21.7321 7.95675 22 8.28718 22H14.7566C15.087 22 15.3548 21.7321 15.3548 21.4017C15.3548 21.0713 15.087 20.8034 14.7566 20.8034H12.1201V15.1939C13.5119 15.0428 14.7996 14.3684 15.7196 13.2917C16.7702 12.0623 17.228 10.441 16.9759 8.84359ZM8.17082 3.19656H14.8728L15.3887 6.46395H7.65496L8.17082 3.19656ZM14.8099 12.5144C13.987 13.4775 12.7885 14.0298 11.5219 14.0298C10.2552 14.0298 9.05671 13.4774 8.23378 12.5144C7.41085 11.5514 7.05222 10.2814 7.24976 9.0302L7.46601 7.66051H15.5777L15.7939 9.0302C15.9915 10.2814 15.6328 11.5514 14.8099 12.5144Z" fill="#102733"/>
</svg>
