<svg width="24" height="24" viewBox="0 0 24 24" fill="none" xmlns="http://www.w3.org/2000/svg">
<path fill-rule="evenodd" clip-rule="evenodd" d="M5.33686 1.09524C5.33686 0.490355 5.82722 0 6.4321 0H7.67337C8.27826 0 8.76861 0.490355 8.76861 1.09524V6.513C10.1497 7.15871 11.1075 8.56045 11.1075 10.1871V21.9048C11.1075 22.5096 10.6172 23 10.0123 23H4.64286C3.73553 23 3 22.2645 3 21.3571V10.1871C3 8.56126 3.95688 7.16011 5.33686 6.51397V1.09524ZM7.67337 1.09524H6.4321V7.26785L6.06707 7.39695C4.91749 7.80349 4.09524 8.89998 4.09524 10.1871V21.3571C4.09524 21.6596 4.34042 21.9048 4.64286 21.9048H10.0123V10.1871C10.0123 8.89932 9.18922 7.80238 8.03874 7.39633L7.67337 7.26738V1.09524Z" fill="#102733"/>
<path fill-rule="evenodd" clip-rule="evenodd" d="M7.9296 4.05251H6.17722V2.95728H7.9296V4.05251Z" fill="#102733"/>
<path fill-rule="evenodd" clip-rule="evenodd" d="M3.54724 16.648C3.54724 16.3455 3.79242 16.1003 4.09486 16.1003H5.62819C5.93064 16.1003 6.17581 16.3455 6.17581 16.648C6.17581 16.9504 5.93064 17.1956 5.62819 17.1956H4.09486C3.79242 17.1956 3.54724 16.9504 3.54724 16.648Z" fill="#102733"/>
<path fill-rule="evenodd" clip-rule="evenodd" d="M7.9296 5.80447H6.17722V4.70923H7.9296V5.80447Z" fill="#102733"/>
<path fill-rule="evenodd" clip-rule="evenodd" d="M8.80647 14.5667H3.54724V13.4714H8.80647V14.5667Z" fill="#102733"/>
<path fill-rule="evenodd" clip-rule="evenodd" d="M8.80647 20.7H3.54724V19.6047H8.80647V20.7Z" fill="#102733"/>
<path fill-rule="evenodd" clip-rule="evenodd" d="M8.80795 13.6902L8.80795 20.6997L7.71271 20.6997L7.71271 13.6902L8.80795 13.6902Z" fill="#102733"/>
<path fill-rule="evenodd" clip-rule="evenodd" d="M14.9395 4.10708C14.9395 3.49566 15.4352 3 16.0466 3H16.9548C17.5662 3 18.0619 3.49565 18.0619 4.10708V8.64736C19.2552 9.22681 20.0788 10.4503 20.0788 11.8674V21.8929C20.0788 22.5044 19.5832 23 18.9718 23H14.5841C13.667 23 12.9235 22.2565 12.9235 21.3394V11.8674C12.9235 10.4507 13.7467 9.22747 14.9395 8.64783V4.10708ZM16.9548 4.10708L16.0466 4.10708V9.40682L15.6775 9.53727C14.7172 9.87672 14.0306 10.7926 14.0306 11.8674V21.3394C14.0306 21.6451 14.2784 21.8929 14.5841 21.8929L18.9718 21.8929V11.8674C18.9718 10.7923 18.2847 9.87622 17.324 9.537L16.9548 9.40662V4.10708Z" fill="#102733"/>
<path fill-rule="evenodd" clip-rule="evenodd" d="M17.2621 6.57729H15.7506V5.47021H17.2621V6.57729Z" fill="#102733"/>
<path fill-rule="evenodd" clip-rule="evenodd" d="M13.4802 17.3594C13.4802 17.0537 13.7281 16.8059 14.0338 16.8059H15.1939C15.4996 16.8059 15.7474 17.0537 15.7474 17.3594C15.7474 17.6652 15.4996 17.913 15.1939 17.913H14.0338C13.7281 17.913 13.4802 17.6652 13.4802 17.3594Z" fill="#102733"/>
<path fill-rule="evenodd" clip-rule="evenodd" d="M17.2621 8.08803H15.7506V6.98096H17.2621V8.08803Z" fill="#102733"/>
<path fill-rule="evenodd" clip-rule="evenodd" d="M18.0164 15.6459H13.4802V14.5388H18.0164V15.6459Z" fill="#102733"/>
<path fill-rule="evenodd" clip-rule="evenodd" d="M18.0164 20.9359H13.4802V19.8289H18.0164V20.9359Z" fill="#102733"/>
<path fill-rule="evenodd" clip-rule="evenodd" d="M18.0146 14.8902L18.0146 20.936L16.9075 20.936L16.9075 14.8902L18.0146 14.8902Z" fill="#102733"/>
</svg>
