<svg width="32" height="32" viewBox="0 0 32 32" fill="none" xmlns="http://www.w3.org/2000/svg">
<path fill-rule="evenodd" clip-rule="evenodd" d="M16.2764 20.586L16.2348 20.5849L16.1926 20.586C16.1542 20.5865 14.6079 20.6066 13.0335 19.859C11.538 19.1489 9.92956 17.7223 9.64839 14.5021C9.62586 14.244 9.61153 13.9811 9.60466 13.7146H22.865C22.8581 13.9811 22.8438 14.244 22.8213 14.5021C22.5401 17.7223 20.9316 19.1489 19.4362 19.859C17.8618 20.6066 16.3148 20.5865 16.2764 20.586ZM22.8249 12.1146H9.64474C9.77516 10.2696 10.1733 8.35588 10.6213 6.69697C10.9396 5.51795 11.2728 4.50407 11.5259 3.78664L11.5681 3.66775H18.6754C18.8325 4.07413 19.0284 4.63551 19.1973 5.2355C19.4133 6.00268 19.5694 6.77882 19.5694 7.36307C19.5694 7.73126 19.8679 8.02974 20.2361 8.02974C20.6043 8.02974 20.9027 7.73126 20.9027 7.36307C20.9027 6.59203 20.7059 5.67405 20.4807 4.87417C20.3589 4.44153 20.2242 4.0276 20.0968 3.66775H20.9016L20.9438 3.78664C21.1968 4.50407 21.5301 5.51795 21.8484 6.69697C22.2963 8.35588 22.6945 10.2696 22.8249 12.1146ZM24.4284 12.1146C24.1066 7.17972 22.0087 2.06775 22.0087 2.06775H10.461C10.461 2.06775 7.5714 9.10894 8.05446 14.6413C8.66148 21.5934 14.7236 22.1447 16.0011 22.1834L16.0015 29.8008H12.8C12.3582 29.8008 12 30.159 12 30.6008C12 31.0426 12.3582 31.4008 12.8 31.4008L20.5333 31.4008C20.9752 31.4008 21.3333 31.0426 21.3333 30.6008C21.3333 30.159 20.9752 29.8008 20.5333 29.8008H17.6015L17.6011 22.0725C19.7987 21.7229 23.9203 20.3097 24.4152 14.6413C24.4418 14.3365 24.4582 14.0271 24.4654 13.7146H24.4709V12.1146H24.4284ZM20.9748 15.1998C21.3241 15.3162 21.5128 15.6937 21.3964 16.043C21.189 16.6653 20.7102 17.5564 19.9259 18.301C19.1303 19.0563 18.002 19.6754 16.5286 19.6754C16.1605 19.6754 15.862 19.3769 15.862 19.0087C15.862 18.6405 16.1605 18.342 16.5286 18.342C17.5964 18.342 18.4094 17.9022 19.0079 17.334C19.6177 16.7551 19.986 16.058 20.1315 15.6214C20.2479 15.2721 20.6255 15.0833 20.9748 15.1998Z" fill="#101A33"/>
</svg>
