<svg width="24" height="24" viewBox="0 0 24 24" fill="none" xmlns="http://www.w3.org/2000/svg">
<path d="M3 3.73926H18.6522L21 6.34795L18.6522 8.95665H3L5.34783 6.34795L3 3.73926Z" stroke="#102733" stroke-width="1.2" stroke-linecap="round" stroke-linejoin="round"/>
<path d="M12.3878 3.90476V2H10.5103V3.90476" stroke="#102733" stroke-width="1.2" stroke-linejoin="round"/>
<path d="M12.3878 8.66667V22H10.5103V8.66667" stroke="#102733" stroke-width="1.2" stroke-linejoin="round"/>
<path d="M6.763 21.9999L6.1706 22.0951L6.25173 22.5999H6.763V21.9999ZM4.87711 18.5015L5.10618 17.9469L3.24361 17.1775L4.38201 18.8404L4.87711 18.5015ZM7.70009 19.6676L7.47101 20.2222L8.56723 20.675L8.28255 19.5236L7.70009 19.6676ZM6.763 15.8776L7.19515 15.4613L5.64377 13.8506L6.18054 16.0216L6.763 15.8776ZM9.10413 18.5015L8.63642 18.8773L9.41393 19.8449L9.68919 18.6345L9.10413 18.5015ZM10.6263 14.5139C10.6998 14.1908 10.4974 13.8693 10.1743 13.7958C9.85114 13.7223 9.52963 13.9247 9.45615 14.2478L10.6263 14.5139ZM7.3554 21.9047C7.30085 21.5653 7.12646 21.1551 6.94061 20.778C6.74627 20.3838 6.50616 19.9612 6.27596 19.5775C6.04494 19.1926 5.81954 18.8397 5.65218 18.5834C5.56838 18.4551 5.49885 18.3505 5.45006 18.2778C5.42566 18.2414 5.40644 18.2129 5.3932 18.1934C5.38657 18.1836 5.38145 18.1761 5.37791 18.1709C5.37615 18.1683 5.37478 18.1663 5.37383 18.1649C5.37335 18.1642 5.37297 18.1637 5.3727 18.1633C5.37257 18.1631 5.37246 18.1629 5.37237 18.1628C5.37233 18.1627 5.37229 18.1627 5.37227 18.1626C5.37223 18.1626 5.3722 18.1625 4.87711 18.5015C4.38201 18.8404 4.38199 18.8404 4.38198 18.8404C4.38199 18.8404 4.38199 18.8404 4.382 18.8404C4.38202 18.8404 4.38207 18.8405 4.38214 18.8406C4.38229 18.8408 4.38254 18.8412 4.38289 18.8417C4.3836 18.8427 4.38472 18.8444 4.38623 18.8466C4.38925 18.851 4.39386 18.8578 4.39994 18.8668C4.41211 18.8847 4.4302 18.9115 4.45341 18.9461C4.49983 19.0153 4.56664 19.1158 4.64744 19.2395C4.80929 19.4874 5.02607 19.8268 5.24701 20.195C5.46876 20.5645 5.69036 20.9558 5.86427 21.3086C6.04666 21.6786 6.14705 21.9486 6.1706 22.0951L7.3554 21.9047ZM4.87711 18.5015C4.87711 18.5015 4.64803 19.056 4.64803 19.056C4.64803 19.056 4.64803 19.056 4.64803 19.056C4.64803 19.056 4.64803 19.056 4.64803 19.056C4.64803 19.056 4.64803 19.056 4.64803 19.056C4.64804 19.056 4.64802 19.056 4.64803 19.056C4.64803 19.056 4.64803 19.056 4.64804 19.056C4.64804 19.056 4.64804 19.056 4.64804 19.056C4.64812 19.0561 4.648 19.056 4.64811 19.0561C4.64903 19.0564 4.64755 19.0558 4.64872 19.0563C4.64882 19.0564 4.64918 19.0565 4.64937 19.0566C4.65312 19.0581 4.64649 19.0554 4.65035 19.057C4.65386 19.0584 4.64943 19.0566 4.65354 19.0583C4.67303 19.0664 4.65611 19.0594 4.69214 19.0742C4.7535 19.0996 4.70797 19.0808 4.7969 19.1175C4.81127 19.1235 4.94793 19.1799 5.0009 19.2018C5.03688 19.2167 4.99835 19.2007 5.03503 19.2159C5.05168 19.2228 5.03605 19.2163 5.05289 19.2233C5.05428 19.2238 5.06058 19.2264 5.06202 19.227C5.06622 19.2288 5.06704 19.2291 5.07129 19.2309C5.11466 19.2488 5.06562 19.2285 5.10974 19.2468C5.13742 19.2582 5.12202 19.2518 5.15046 19.2636C5.15427 19.2651 5.18891 19.2795 5.1935 19.2814C5.22425 19.2941 5.18497 19.2778 5.21591 19.2906C5.21781 19.2914 5.21971 19.2922 5.22161 19.293C5.22352 19.2938 5.22543 19.2945 5.22735 19.2953C5.22918 19.2961 5.23705 19.2993 5.23893 19.3001C5.24017 19.3006 5.33264 19.3388 5.33723 19.3407C5.37117 19.3547 5.31624 19.3321 5.35024 19.3461C5.35242 19.347 5.3546 19.3479 5.3568 19.3488C5.35899 19.3497 5.36119 19.3506 5.3634 19.3515C5.38438 19.3602 5.3557 19.3484 5.37673 19.357C5.37897 19.358 5.38121 19.3589 5.38346 19.3598C5.38571 19.3608 5.38796 19.3617 5.39023 19.3626C5.4052 19.3688 5.43 19.379 5.44587 19.3856C5.46488 19.3935 5.4843 19.4015 5.50422 19.4097C5.51773 19.4153 5.50568 19.4103 5.51925 19.4159C5.53616 19.4229 5.51747 19.4152 5.53444 19.4222C5.53699 19.4232 5.53954 19.4243 5.5421 19.4254C5.54467 19.4264 5.54723 19.4275 5.54981 19.4285C5.55239 19.4296 5.55497 19.4307 5.55756 19.4317C5.56015 19.4328 5.56275 19.4339 5.56536 19.435C5.62092 19.4579 5.57282 19.438 5.62934 19.4614C5.63206 19.4625 5.6348 19.4636 5.63754 19.4648C5.64028 19.4659 5.64303 19.467 5.64578 19.4682C5.65215 19.4708 5.65598 19.4724 5.66241 19.4751C5.69467 19.4884 5.6469 19.4686 5.67922 19.482C5.69888 19.4901 5.6765 19.4809 5.69622 19.489C5.7318 19.5037 5.79934 19.5316 5.83897 19.548C5.84207 19.5493 5.84518 19.5506 5.8483 19.5518C5.85142 19.5531 5.85454 19.5544 5.85768 19.5557C5.86081 19.557 5.86395 19.5583 5.8671 19.5596C5.87025 19.5609 5.87341 19.5622 5.87658 19.5635C5.87975 19.5648 5.88292 19.5661 5.8861 19.5675C5.88929 19.5688 5.89248 19.5701 5.89568 19.5714C5.94102 19.5901 5.86956 19.5606 5.91497 19.5794C5.95873 19.5975 5.9493 19.5936 5.99413 19.6121C6.01364 19.6201 6.05593 19.6376 6.07652 19.6461C6.09544 19.6539 6.07864 19.647 6.09763 19.6548C6.10117 19.6563 6.10471 19.6578 6.10827 19.6592C6.11182 19.6607 6.11538 19.6622 6.11895 19.6636C6.16692 19.6835 6.11397 19.6616 6.16221 19.6815C6.16738 19.6837 6.17892 19.6884 6.18415 19.6906C6.18783 19.6921 6.19151 19.6936 6.19521 19.6951C6.1989 19.6967 6.2026 19.6982 6.20631 19.6997C6.21949 19.7052 6.2378 19.7127 6.25126 19.7183C6.25504 19.7199 6.25883 19.7214 6.26263 19.723C6.26643 19.7246 6.27023 19.7261 6.27405 19.7277C6.29374 19.7359 6.2773 19.7291 6.29706 19.7372C6.30091 19.7388 6.30478 19.7404 6.30865 19.742C6.31252 19.7436 6.3164 19.7452 6.32029 19.7468C6.35274 19.7602 6.31121 19.7431 6.34373 19.7565C6.39228 19.7766 6.34243 19.756 6.39127 19.7761C6.40725 19.7827 6.39931 19.7795 6.41537 19.7861C6.46503 19.8066 6.38996 19.7756 6.43969 19.7961C6.477 19.8116 6.42685 19.7908 6.46423 19.8063C6.46834 19.808 6.47246 19.8097 6.47659 19.8114C6.48072 19.8131 6.48485 19.8148 6.489 19.8165C6.49315 19.8182 6.4973 19.8199 6.50147 19.8217C6.50563 19.8234 6.50981 19.8251 6.51399 19.8268C6.51817 19.8286 6.52237 19.8303 6.52657 19.832C6.53077 19.8338 6.53498 19.8355 6.5392 19.8372C6.80259 19.9461 7.12492 20.0792 7.47101 20.2222L7.92916 19.1131C7.92365 19.1108 7.91815 19.1085 7.91266 19.1063C7.90716 19.104 7.90168 19.1017 7.89621 19.0995C7.86737 19.0875 7.89228 19.0978 7.86352 19.086C7.85768 19.0835 7.83683 19.0749 7.83108 19.0726C7.82569 19.0703 7.82032 19.0681 7.81495 19.0659C7.80959 19.0637 7.80424 19.0615 7.79889 19.0593C7.77122 19.0478 7.69903 19.018 7.67269 19.0071C7.66752 19.005 7.66236 19.0029 7.6572 19.0007C7.65205 18.9986 7.64691 18.9965 7.64177 18.9944C7.63664 18.9922 7.63152 18.9901 7.62641 18.988C7.62129 18.9859 7.61619 18.9838 7.6111 18.9817C7.60601 18.9796 7.60093 18.9775 7.59586 18.9754C7.59079 18.9733 7.58573 18.9712 7.58068 18.9691C7.57563 18.967 7.57059 18.9649 7.56556 18.9629C7.56053 18.9608 7.55551 18.9587 7.5505 18.9567C7.54466 18.9542 7.4964 18.9343 7.49089 18.932C7.47688 18.9262 7.47537 18.9256 7.46145 18.9199C7.45656 18.9178 7.45168 18.9158 7.44682 18.9138C7.44195 18.9118 7.43709 18.9098 7.43225 18.9078C7.4284 18.9062 7.37811 18.8854 7.37458 18.884C7.36981 18.882 7.36506 18.88 7.36031 18.8781C7.35557 18.8761 7.35083 18.8742 7.34611 18.8722C7.31727 18.8603 7.34663 18.8724 7.31787 18.8606C7.31319 18.8586 7.30851 18.8567 7.30385 18.8548C7.29918 18.8528 7.29452 18.8509 7.28988 18.849C7.27678 18.8436 7.27514 18.8429 7.26212 18.8375C7.25751 18.8356 7.25292 18.8337 7.24833 18.8318C7.24374 18.8299 7.23916 18.828 7.2346 18.8262C7.22183 18.8209 7.22 18.8201 7.20731 18.8149C7.18347 18.805 7.17696 18.8023 7.15344 18.7926C7.14511 18.7892 7.10851 18.7741 7.10049 18.7708C7.07736 18.7612 7.09743 18.7695 7.07437 18.76C7.07003 18.7582 7.06571 18.7564 7.06139 18.7546C7.05707 18.7528 7.05277 18.751 7.04847 18.7493C7.04064 18.746 7.03056 18.7419 7.0228 18.7387C6.98237 18.722 7.03772 18.7448 6.99736 18.7282C6.9795 18.7208 6.91451 18.6939 6.89785 18.687C6.89377 18.6854 6.88971 18.6837 6.88566 18.682C6.8816 18.6803 6.87756 18.6787 6.87353 18.677C6.85536 18.6695 6.86752 18.6745 6.84943 18.667C6.84442 18.665 6.83048 18.6592 6.82555 18.6572C6.80516 18.6488 6.8222 18.6558 6.80189 18.6474C6.77278 18.6354 6.73736 18.6208 6.70941 18.6092C6.69114 18.6017 6.63751 18.5795 6.62037 18.5724C6.6085 18.5675 6.54544 18.5415 6.53468 18.537C6.53118 18.5356 6.52768 18.5341 6.5242 18.5327C6.52072 18.5313 6.51724 18.5298 6.51377 18.5284C6.51174 18.5276 6.49504 18.5206 6.49307 18.5198C6.48964 18.5184 6.48622 18.517 6.4828 18.5156C6.47939 18.5142 6.47598 18.5128 6.47258 18.5114C6.4487 18.5015 6.4761 18.5128 6.45229 18.503C6.44892 18.5016 6.44556 18.5002 6.44222 18.4988C6.43887 18.4974 6.43553 18.4961 6.4322 18.4947C6.41333 18.4869 6.4311 18.4942 6.41231 18.4865C6.40901 18.4851 6.40572 18.4838 6.40244 18.4824C6.39915 18.481 6.39588 18.4797 6.39262 18.4783C6.38935 18.477 6.38609 18.4756 6.38285 18.4743C6.3796 18.473 6.37636 18.4716 6.37312 18.4703C6.36989 18.469 6.36667 18.4676 6.36345 18.4663C6.36024 18.465 6.35703 18.4636 6.35383 18.4623C6.35063 18.461 6.34744 18.4597 6.34426 18.4584C6.34108 18.457 6.3379 18.4557 6.33473 18.4544C6.28929 18.4357 6.36121 18.4654 6.31583 18.4466C6.28794 18.4351 6.32496 18.4504 6.29713 18.4389C6.20706 18.4017 6.24039 18.4155 6.15438 18.3799C6.14621 18.3766 6.14549 18.3763 6.13738 18.3729C6.11809 18.3649 6.13979 18.3739 6.12057 18.366C6.09571 18.3557 6.11211 18.3625 6.08749 18.3523C6.06404 18.3426 6.04601 18.3352 6.02351 18.3259C6.01513 18.3224 6.01629 18.3229 6.00797 18.3194C6.00539 18.3184 6.00282 18.3173 6.00026 18.3163C5.9977 18.3152 5.99514 18.3141 5.9926 18.3131C5.99005 18.312 5.98751 18.311 5.98498 18.3099C5.98244 18.3089 5.97992 18.3079 5.9774 18.3068C5.97114 18.3042 5.96858 18.3032 5.96238 18.3006C5.95484 18.2975 5.94017 18.2914 5.93286 18.2884C5.93153 18.2879 5.91963 18.283 5.91836 18.2824C5.89483 18.2727 5.92749 18.2862 5.90402 18.2765C5.8843 18.2684 5.86721 18.2613 5.84838 18.2535C5.80192 18.2343 5.8678 18.2615 5.82156 18.2424C5.77486 18.2232 5.84187 18.2508 5.79539 18.2316C5.76824 18.2204 5.7968 18.2322 5.76986 18.2211C5.75586 18.2153 5.75877 18.2165 5.74498 18.2108C5.71248 18.1974 5.72876 18.2041 5.69709 18.191C5.69273 18.1892 5.68981 18.188 5.6855 18.1862C5.68359 18.1854 5.68167 18.1847 5.67977 18.1839C5.67786 18.1831 5.67596 18.1823 5.67407 18.1815C5.65366 18.1731 5.67187 18.1806 5.65166 18.1723C5.62014 18.1592 5.63935 18.1672 5.60861 18.1545C5.56661 18.1371 5.62978 18.1632 5.58797 18.1459C5.58217 18.1436 5.5735 18.14 5.5679 18.1377C5.54511 18.1282 5.55148 18.1309 5.52944 18.1218C5.51395 18.1154 5.52635 18.1205 5.51104 18.1142C5.48703 18.1043 5.51702 18.1166 5.49318 18.1068C5.48018 18.1014 5.48869 18.1049 5.47586 18.0996C5.46517 18.0952 5.46957 18.097 5.45906 18.0927C5.45085 18.0893 5.45081 18.0893 5.44277 18.086C5.43865 18.0843 5.4389 18.0844 5.43482 18.0827C5.42695 18.0794 5.43483 18.0827 5.427 18.0795C5.41201 18.0733 5.41127 18.073 5.39694 18.067C5.37689 18.0588 5.36013 18.0518 5.34258 18.0446C5.32691 18.0381 5.3088 18.0306 5.29546 18.0251C5.28435 18.0205 5.28501 18.0208 5.27445 18.0164C5.266 18.0129 5.27287 18.0158 5.26455 18.0123C5.26151 18.0111 5.25796 18.0096 5.25505 18.0084C5.18119 17.9779 5.19659 17.9843 5.15029 17.9651C5.11299 17.9497 5.13246 17.9578 5.1117 17.9492C5.09894 17.9439 5.12248 17.9537 5.10988 17.9485C5.10979 17.9484 5.10919 17.9482 5.10914 17.9482C5.1091 17.9481 5.10852 17.9479 5.10851 17.9479C5.10655 17.9471 5.1084 17.9478 5.10687 17.9472C5.10662 17.9471 5.10665 17.9471 5.10647 17.947C5.10597 17.9468 5.10685 17.9472 5.10635 17.947C5.10629 17.947 5.10637 17.947 5.10631 17.947C5.1063 17.947 5.10629 17.947 5.10629 17.947C5.10628 17.947 5.10628 17.947 5.10627 17.947C5.10621 17.9469 5.10622 17.9469 5.10619 17.9469C5.10619 17.9469 5.10619 17.9469 5.10619 17.9469C5.10619 17.9469 5.10619 17.9469 5.10619 17.9469C5.10619 17.9469 5.10619 17.9469 5.10619 17.9469C5.10619 17.9469 5.10619 17.9469 5.10618 17.9469C5.10618 17.9469 5.10619 17.9469 5.10618 17.9469C5.10618 17.9469 5.10618 17.9469 5.10618 17.9469C5.10618 17.9469 4.87711 18.5015 4.87711 18.5015ZM8.28255 19.5236L7.34546 15.7336L6.18054 16.0216L7.11763 19.8116L8.28255 19.5236ZM6.763 15.8776C6.33085 16.2938 6.33084 16.2938 6.33084 16.2938C6.33084 16.2938 6.33085 16.2938 6.33086 16.2938C6.33088 16.2938 6.33093 16.2939 6.331 16.294C6.33113 16.2941 6.33135 16.2943 6.33165 16.2946C6.33226 16.2953 6.3332 16.2962 6.33447 16.2976C6.337 16.3002 6.34085 16.3042 6.34595 16.3095C6.35615 16.3202 6.37137 16.3361 6.39114 16.3568C6.4307 16.3982 6.48846 16.4589 6.5608 16.5355C6.70553 16.6888 6.90831 16.9053 7.14006 17.1579C7.60543 17.665 8.18026 18.3096 8.63642 18.8773L9.57183 18.1256C9.0909 17.5271 8.49517 16.8598 8.02425 16.3466C7.78785 16.0889 7.58106 15.8681 7.43324 15.7116C7.35931 15.6333 7.30006 15.571 7.25917 15.5282C7.23873 15.5068 7.22286 15.4902 7.21204 15.4789C7.20663 15.4733 7.20248 15.469 7.19964 15.466C7.19822 15.4645 7.19714 15.4634 7.19639 15.4626C7.19601 15.4622 7.19572 15.4619 7.19551 15.4617C7.19541 15.4616 7.19533 15.4615 7.19526 15.4615C7.19523 15.4614 7.1952 15.4614 7.19519 15.4614C7.19517 15.4614 7.19515 15.4613 6.763 15.8776ZM9.68919 18.6345L10.6263 14.5139L9.45615 14.2478L8.51906 18.3684L9.68919 18.6345ZM6.763 22.5999H10.5098V21.3999H6.763V22.5999Z" fill="#102733"/>
</svg>
